<svg height="511pt" viewBox="-8 0 511 511.96139" width="511pt" xmlns="http://www.w3.org/2000/svg" style="fill: #f3cfd6;"><path d="m293.554688 209.753906c8.148437-11.003906 18.652343-20.050781 30.738281-26.480468-13.714844-6.292969-28.207031-10.722657-43.09375-13.171876 6.058593 12.53125 10.226562 25.894532 12.355469 39.652344zm0 0"/><path d="m141.722656 194.128906c0 40.609375-15.371094 58.933594-52.417968 61.460938.886718 8.988281 4.070312 17.597656 9.25 24.996094 7.914062 11.351562 20.539062 18.507812 34.339843 19.476562 22.882813-.164062 44.894531-8.792969 61.792969-24.222656 22.789062-21.023438 35.617188-50.707032 35.308594-81.710938 0-58.410156-43.5625-105.929687-97.101563-105.929687-4.300781 0-40.289062.960937-43.792969 30.585937 1.527344.9375 3.097657 1.917969 4.5625 2.808594 26.871094 16.359375 48.058594 29.28125 48.058594 72.535156zm10.308594-49.035156c5.269531-8.148438 14.21875-13.167969 23.914062-13.417969 10.304688.636719 19.261719 8.4375 26.644532 23.199219 6.441406 12.894531 6.796875 23.25 1.03125 30.789062-6.351563 6.785157-15.457032 10.285157-24.71875 9.5-4.183594-.007812-8.355469-.414062-12.464844-1.210937-4.628906-1.09375-7.558594-5.65625-6.625-10.320313.933594-4.667968 5.394531-7.753906 10.085938-6.980468 7.390624 1.4375 17.59375 1.015625 19.660156-1.703125.734375-.972657.980468-4.625-2.808594-12.183594-6.070312-12.15625-10.644531-13.382813-11.90625-13.46875-2.992188-.179687-6.914062 3.785156-8.191406 5.648437-2.722656 4.046876-8.207032 5.121094-12.253906 2.402344-4.046876-2.722656-5.121094-8.207031-2.402344-12.253906zm0 0"/><path d="m330.359375 37.183594c-28.503906 26.960937-47.433594 62.480468-53.917969 101.175781 21.292969-17.207031 46.875-28.28125 73.992188-32.035156-16.335938-19.082031-23.648438-44.277344-20.074219-69.140625zm0 0"/><path d="m433.03125 70.542969h8.828125v-17.652344h-8.828125c-2.300781-.023437-4.515625.894531-6.125 2.539063-1.730469 1.632812-2.710938 3.910156-2.703125 6.285156 0 4.878906 3.953125 8.828125 8.828125 8.828125zm0 0"/><path d="m286.222656 153.089844c19.367188 3.242187 38.035156 9.785156 55.1875 19.351562-1.59375-17.207031 2.835938-34.433594 12.527344-48.738281-24.894531 3.203125-48.375 13.390625-67.714844 29.386719zm0 0"/><path d="m468.34375 158.820312c14.625 0 26.480469-11.855468 26.480469-26.484374v-52.964844c0-14.625-11.855469-26.480469-26.480469-26.480469h-8.828125v22.554687c13.792969 7.984376 20.507813 24.234376 16.375 39.628907-4.136719 15.394531-18.089844 26.09375-34.03125 26.089843-9.75 0-17.65625 7.90625-17.65625 17.65625v52.964844c0 9.75 7.90625 17.65625 17.65625 17.65625 19.503906 0 35.3125 15.808594 35.3125 35.308594v8.828125c0 19.5-15.808594 35.3125-35.3125 35.3125h-49.796875c5.210938 5.414063 9.875 11.328125 13.929688 17.652344h62.351562c14.625 0 26.480469-11.855469 26.480469-26.480469v-61.792969c.015625-7.027343-2.769531-13.773437-7.738281-18.742187-4.972657-4.96875-11.714844-7.757813-18.742188-7.742188-14.628906 0-26.484375-11.855468-26.484375-26.484375 0-14.625 11.855469-26.480469 26.484375-26.480469zm0 0"/><path d="m309.445312 291.234375h-41.488281c-5.003906 5.375-10.488281 10.285156-16.382812 14.660156 2.8125 1.105469 5.734375 2.359375 8.824219 3.921875 2.824218 1.410156 4.679687 4.21875 4.871093 7.367188.191407 3.148437-1.3125 6.160156-3.945312 7.902344-2.632813 1.738281-5.992188 1.941406-8.816407.53125-20.796874-10.40625-30.359374-6.894532-32.492187-3.585938-1.445313 2.917969-4.425781 4.757812-7.683594 4.742188-3.117187.019531-6.015625-1.597657-7.640625-4.257813s-1.742187-5.980469-.300781-8.746094c4.558594-7.472656 12.558594-12.160156 21.308594-12.488281.210937-.125.351562-.320312.574219-.425781 5.40625-2.707031 10.542968-5.929688 15.332031-9.621094h-37.859375c-19.742188 16.929687-44.84375 26.316406-70.851563 26.480469-13.390625-.554688-26.226562-5.5-36.527343-14.070313-5.164063 27.371094-7.976563 55.132813-8.40625 82.980469v1.007812c.042968 21.375 15.144531 39.761719 36.105468 43.960938v-34.429688c0-4.875 3.953125-8.828124 8.828125-8.828124s8.828125 3.953124 8.828125 8.828124v97.105469c-.023437 4.824219 1.945313 9.449219 5.445313 12.773438 3.542969 3.398437 8.339843 5.171875 13.242187 4.890625 9.652344-1.082032 16.871094-9.371094 16.621094-19.078125v-25.070313c0-19.5 15.808594-35.308594 35.3125-35.308594h123.585938c6.214843.035157 12.3125 1.730469 17.65625 4.90625v-40.21875c0-4.875 3.949218-8.828124 8.824218-8.828124s8.828125 3.953124 8.828125 8.828124v97.105469c-.007812 4.859375 1.992188 9.511719 5.523438 12.851563 3.53125 3.34375 8.285156 5.078125 13.140625 4.800781 9.65625-1.066406 16.890625-9.351563 16.648437-19.066406v-104.519531c-.0625-53.601563-43.503906-97.039063-97.105469-97.101563zm0 0"/><path d="m88.757812 494.269531c0 9.75 7.902344 17.652344 17.652344 17.652344 9.753906 0 17.65625-7.902344 17.65625-17.652344v-44.757812c-13.371094-1.910157-25.757812-8.105469-35.308594-17.65625zm0 0"/><path d="m335.929688 450.128906h-17.65625v44.140625c0 9.75 7.90625 17.652344 17.65625 17.652344s17.65625-7.902344 17.65625-17.652344v-26.484375c0-9.75-7.90625-17.65625-17.65625-17.65625zm0 0"/><path d="m124.066406 194.128906c0-33.339844-13.242187-41.398437-39.582031-57.457031-1.386719-.839844-2.878906-1.765625-4.308594-2.648437-6.457031 8.296874-12.4375 16.960937-17.902343 25.945312-3.019532 5.28125-6.480469 10.300781-10.34375 15.003906-6.609376 6.640625-15.597657 10.359375-24.964844 10.328125-14.628906 0-26.484375 11.859375-26.484375 26.484375s11.855469 26.484375 26.484375 26.484375h52.964844c30.523437 0 44.136718-6.375 44.136718-44.140625zm-35.308594-17.652344h-8.828124c-4.875 0-8.828126-3.953124-8.828126-8.828124s3.953126-8.828126 8.828126-8.828126h8.828124c4.875 0 8.828126 3.953126 8.828126 8.828126s-3.953126 8.828124-8.828126 8.828124zm0 0"/><path d="m358.085938 16.34375c-75.476563 45.285156-83.066407 125.878906-83.863282 140.269531 19.953125 35.222657 25.425782 67.796875 16.066406 97.015625-4.558593 14.039063-12.1875 26.886719-22.332031 37.605469h-26.308593c14.824218-10.71875 25.957031-25.769531 31.871093-43.078125 7.855469-24.808594 2.558594-53.40625-15.804687-84.921875-.804688-1.332031-1.234375-2.859375-1.234375-4.414063 2.5625-64.730468 37.3125-123.898437 92.601562-157.660156 4.183594-2.386718 9.507813-.976562 11.964844 3.167969 2.453125 4.140625 1.136719 9.488281-2.960937 12.015625zm0 0"/></svg>