<svg enable-background="new 0 0 497 497" height="512" viewBox="0 0 512 512" width="512" xmlns="http://www.w3.org/2000/svg">
<path d="m347 98.5c-37.7 0-159.3 0-197 0-82.843 0-150 67.157-150 150s67.157 150 150 150h197c82.843 0 150-67.157 150-150s-67.157-150-150-150z" fill="#acd5df"/>
<path d="m150 128.5c-66.168 0-120 53.832-120 120s53.832 120 120 120h92.96v-240z" fill="#725fee"/>
<path d="m347 128.5h-104.04c-28.561 31.869-45.96 73.938-45.96 120s17.399 88.131 45.96 120h104.04z" fill="#6241ea"/>
<path d="m347 128.5v240c66.274 0 120-53.726 120-120s-53.726-120-120-120z" fill="#c4f3ff"/>
<path d="m437 248.5c0-66.274-40.294-120-90-120-66.274 0-120 53.726-120 120s53.726 120 120 120c49.706 0 90-53.726 90-120z" fill="#fff"/></svg>